<svg width="123" height="135" viewBox="0 0 123 135" fill="none" xmlns="http://www.w3.org/2000/svg">
<path d="M74.3606 88.3342C75.1671 87.4123 74.8339 86.3823 74.8558 85.4219C74.9195 82.625 74.8922 79.8245 74.9869 77.0296C75.0069 76.4321 75.3674 75.8401 75.6113 75.2609C75.7934 74.8302 76.001 74.3995 76.2704 74.0219C76.4598 73.758 76.7711 73.5821 77.0296 73.3695C77.3264 73.1239 77.6122 72.8618 77.929 72.6455C78.0601 72.5557 78.2695 72.5869 78.4279 72.5264C78.6464 72.4421 78.8485 72.3138 79.0651 72.2185C79.1744 72.1708 79.2963 72.1305 79.4129 72.1305C80.4397 72.1214 81.4666 72.1122 82.4916 72.1269C82.6828 72.1305 82.8776 72.235 83.0633 72.312C83.1762 72.3578 83.269 72.4623 83.3837 72.5007C84.1593 72.7518 84.7 73.1825 85.3154 73.7012C85.7214 74.0421 85.7906 74.5278 86.091 74.8999C86.3714 75.2463 86.5935 75.6421 86.8247 76.027C86.8848 76.1278 86.8958 76.2689 86.9012 76.3917C86.9194 76.7565 86.914 77.123 86.9358 77.4877C86.9558 77.8121 86.843 78.1604 87.1907 78.4206C87.289 78.4939 87.2763 78.7487 87.2763 78.921C87.2799 86.9999 87.2799 95.0788 87.2672 103.156C87.2672 103.33 87.0979 103.5 87.025 103.678C86.985 103.775 86.9668 103.889 86.9631 103.995C86.9413 104.488 86.9449 104.981 86.9067 105.473C86.8867 105.744 87.0159 106.107 86.579 106.204C86.5444 106.211 86.5098 106.312 86.5098 106.369C86.5007 106.911 86.1639 107.252 85.7924 107.577C85.7506 107.613 85.7214 107.687 85.7233 107.742C85.7415 108.29 85.2881 108.458 84.9549 108.724C84.629 108.984 84.3031 109.243 83.9754 109.503C83.9627 109.512 83.9499 109.532 83.939 109.53C83.4474 109.461 83.1052 109.923 82.6773 109.939C81.4028 109.989 80.1229 109.996 78.8503 109.924C78.4679 109.902 78.1038 109.567 77.7324 109.371C77.6523 109.329 77.5886 109.241 77.5048 109.219C76.9404 109.063 76.6509 108.553 76.2285 108.218C75.95 107.998 75.7042 107.727 75.473 107.454C75.3073 107.258 75.1307 107.036 75.067 106.796C74.9559 106.369 74.5827 106.132 74.4443 105.689C74.2568 105.086 73.7798 104.573 73.4266 104.023C73.3938 103.971 73.3301 103.922 73.3264 103.869C73.2827 103.167 72.8439 102.659 72.5017 102.097C72.2996 101.765 72.2213 101.36 72.0338 101.017C71.8189 100.623 71.5404 100.267 71.3018 99.8862C71.2472 99.7982 71.2582 99.6681 71.2108 99.5728C71.1362 99.4225 71.0342 99.2851 70.9468 99.1403C70.9086 99.0761 70.8485 99.012 70.843 98.9442C70.8176 98.6472 70.7156 98.442 70.4971 98.1946C70.2113 97.8701 70.1494 97.3533 69.9473 96.9409C69.7579 96.5524 69.5121 96.1913 69.29 95.8193C69.2664 95.7789 69.2299 95.7459 69.2136 95.7038C69.0424 95.2749 68.8731 94.8442 68.7074 94.4135C68.5854 94.0983 68.0447 93.728 67.7734 93.7794C67.4239 93.8453 67.0852 94.2907 67.0834 94.7214C67.0707 97.8225 67.0615 100.924 67.0506 104.023C67.0506 104.292 67.0998 104.584 67.0197 104.829C66.8376 105.388 66.6701 105.945 66.5317 106.515C66.4753 106.75 66.3387 107.085 66.1858 107.322C65.9327 107.714 65.565 108.029 65.2409 108.374C65.0333 108.596 64.8549 108.889 64.5964 109.006C64.2432 109.167 64.0921 109.624 63.6078 109.602C63.4002 109.593 63.1927 109.866 62.9687 109.901C62.4098 109.987 61.8399 110.047 61.2755 110.053C60.5509 110.058 59.8245 110.005 59.1017 109.956C58.9687 109.946 58.8413 109.833 58.7139 109.761C58.6374 109.719 58.5682 109.626 58.4954 109.622C57.6597 109.594 57.1991 108.986 56.6856 108.454C56.3488 108.106 56.0102 107.762 55.6734 107.413C55.6406 107.38 55.5933 107.34 55.5914 107.302C55.5696 106.649 54.9524 106.178 55.0507 105.476C55.0725 105.313 54.8868 105.126 54.8177 104.943C54.7649 104.802 54.7193 104.646 54.7175 104.498C54.7011 102.987 54.6884 101.477 54.6884 99.965C54.6847 92.9051 54.6866 85.8434 54.6884 78.7835C54.6884 78.4976 54.6756 78.208 54.7193 77.9276C54.7485 77.7388 54.8978 77.5721 54.9433 77.3851C55.0125 77.0974 55.0361 76.7968 55.0835 76.5035C55.1235 76.2488 54.956 75.8969 55.393 75.8217C55.413 75.8181 55.444 75.7686 55.4385 75.7484C55.3238 75.2096 55.8809 74.9695 55.981 74.5076C56.0357 74.251 56.296 74.0274 56.4963 73.8203C56.6911 73.6187 57.0188 73.5014 57.1226 73.2723C57.2537 72.9809 57.4594 73.0029 57.6724 72.9351C57.7981 72.8948 57.9055 72.7903 58.0165 72.7097C58.053 72.684 58.0675 72.6162 58.1021 72.6052C58.6356 72.4403 59.1617 72.1855 59.7061 72.1415C60.6474 72.0645 61.5996 72.1049 62.5463 72.1342C62.7448 72.1397 62.9359 72.3193 63.1344 72.4164C63.189 72.4439 63.2509 72.4751 63.3092 72.4732C63.9573 72.4586 64.3251 72.9993 64.8385 73.232C65.3756 73.4758 65.6433 73.9743 66.0748 74.3079C66.3278 74.504 66.4516 74.8669 66.6446 75.1473C66.8667 75.4735 67.1143 75.7833 67.3237 76.1168C67.5094 76.4119 67.6769 76.7198 67.8244 77.0369C68.143 77.726 68.4198 78.4353 68.7584 79.1116C68.9423 79.48 69.2208 79.7989 69.4557 80.1416C69.4739 80.1673 69.4848 80.1984 69.4958 80.2278C69.6542 80.6585 69.7816 81.1057 69.9819 81.5144C70.1658 81.8883 70.4298 82.22 70.6573 82.5737C70.7065 82.6489 70.7411 82.7332 70.7848 82.8138C70.8886 83.0044 70.9996 83.1914 71.0907 83.3875C71.1416 83.4974 71.1416 83.6294 71.1926 83.7394C71.2636 83.8988 71.3546 84.0473 71.4439 84.1976C71.4748 84.2489 71.5385 84.2855 71.5604 84.3387C71.7352 84.7657 71.7861 85.3577 72.1011 85.585C72.5326 85.8966 72.2413 86.5252 72.7602 86.7067C72.8094 86.7231 72.8239 86.8716 72.8385 86.9596C72.9332 87.5552 73.432 87.8723 73.7761 88.2865C73.8726 88.402 74.1931 88.3268 74.3606 88.336V88.3342Z" fill="#D12602"/>
<path d="M20.804 74.9915C20.9314 74.9438 21.0589 74.9365 21.1062 74.8705C21.443 74.4123 21.7179 73.9009 22.1021 73.4904C22.3442 73.232 22.8577 73.1972 23.0397 72.9204C23.4148 72.3522 24.2031 72.7445 24.5309 72.1635C24.5673 72.0975 24.7675 72.1121 24.8913 72.1103C25.7125 72.1085 26.5372 72.0663 27.3547 72.1305C27.9865 72.1781 28.5763 72.4311 29.077 72.8526C29.1225 72.8911 29.1881 72.9241 29.2445 72.9241C29.7834 72.9296 30.0402 73.3016 30.3406 73.681C30.6246 74.0384 31.047 74.2803 31.3565 74.6212C31.5877 74.8778 31.7133 75.2279 31.9264 75.5046C32.4252 76.1516 32.3123 76.9104 32.3669 77.6417C32.3742 77.7278 32.5017 77.7993 32.5436 77.8909C32.5982 78.0137 32.6856 78.2355 32.6473 78.2666C32.1485 78.646 32.4197 79.1922 32.3287 79.6559C32.2705 79.951 32.4598 80.345 31.9974 80.4751C31.9773 80.4806 31.9555 80.532 31.9609 80.5576C32.0756 81.1038 31.6806 81.4923 31.4493 81.8736C31.1271 82.4087 30.9887 83.0667 30.428 83.4736C30.1694 83.6605 30.0565 84.0381 29.8417 84.3002C29.6287 84.5604 29.3702 84.7804 29.1371 85.0223C28.9933 85.1707 28.8549 85.3265 28.722 85.486C28.2741 86.0193 27.8317 86.5582 27.382 87.0897C27.2709 87.2198 27.1344 87.3261 27.0106 87.4434C26.5718 87.8521 26.1221 88.2498 25.7015 88.675C25.4503 88.9279 25.2081 89.2047 25.0315 89.5108C24.8677 89.7949 24.8076 90.1321 25.1007 90.4125C25.1644 90.473 25.2555 90.5536 25.2573 90.6269C25.2791 91.1639 25.656 91.448 25.9892 91.7889C26.2222 92.0272 26.3551 92.3644 26.5463 92.6485C26.7084 92.8904 26.8795 93.1269 27.0634 93.3505C27.4384 93.8068 27.8171 94.2577 28.2068 94.6994C28.5581 95.1008 28.9368 95.4765 29.2791 95.8852C29.6232 96.2939 29.9236 96.7429 30.2714 97.1498C30.6282 97.5677 31.0961 97.9086 31.3692 98.3723C31.666 98.8726 32.3141 99.0852 32.387 99.7744C32.4125 100.018 32.7293 100.233 32.915 100.458C32.9532 100.504 33.0388 100.542 33.0388 100.583C33.0206 101.288 33.6232 101.807 33.5759 102.536C33.5212 103.376 33.5595 104.221 33.5449 105.064C33.5413 105.264 33.6323 105.535 33.2827 105.577C33.2445 105.582 33.199 105.707 33.1953 105.779C33.1735 106.376 32.8476 106.776 32.4252 107.166C32.1721 107.399 32.0902 107.811 31.8645 108.084C31.6605 108.33 31.3729 108.509 31.1052 108.696C30.7466 108.946 30.3733 109.173 30.0037 109.407C29.9072 109.47 29.8071 109.528 29.7033 109.576C29.4648 109.688 29.2245 109.798 28.9805 109.897C28.8822 109.937 28.7712 109.965 28.6656 109.966C27.5459 109.97 26.428 109.977 25.3083 109.955C25.1626 109.952 25.0206 109.792 24.8786 109.701C24.8404 109.677 24.804 109.607 24.7803 109.613C24.2414 109.739 23.9373 109.244 23.4894 109.112C23.1126 109.001 22.7867 108.685 22.4608 108.431C22.0548 108.114 21.636 107.798 21.2901 107.421C20.926 107.025 20.6438 106.554 20.3233 106.118C20.1504 105.879 19.9847 105.634 19.7935 105.412C19.6187 105.207 19.3711 105.055 19.2309 104.831C19.0033 104.47 18.8632 104.05 18.6338 103.689C18.4462 103.394 18.1822 103.15 17.9528 102.881C17.9146 102.835 17.8691 102.78 17.8636 102.725C17.8163 102.223 17.4412 101.932 17.1736 101.561C16.9205 101.213 16.7785 100.782 16.5855 100.39C16.4617 100.139 16.3397 99.8843 16.205 99.6387C15.961 99.197 15.708 98.7608 15.4622 98.321C15.4258 98.255 15.3857 98.1798 15.3857 98.1084C15.3857 97.4357 14.8177 97.1718 14.4408 96.7723C14.4062 96.7356 14.2787 96.7228 14.2678 96.7429C14.093 97.049 13.6397 97.093 13.6524 97.6117C13.6961 99.3437 13.6961 101.079 13.6433 102.811C13.6215 103.537 13.4485 104.261 13.3102 104.979C13.1864 105.626 13.0316 106.268 12.8514 106.9C12.8058 107.063 12.5946 107.17 12.489 107.325C12.0612 107.954 11.7098 108.707 11.018 109.028C10.6028 109.219 10.3134 109.756 9.74896 109.602C8.32521 110.41 6.79586 109.948 5.30838 109.959C5.20096 109.959 5.08808 109.838 4.98431 109.765C4.93697 109.732 4.89327 109.631 4.86596 109.638C4.32705 109.769 4.03574 109.254 3.58604 109.136C3.3621 109.078 3.17093 108.847 2.99433 108.663C2.59743 108.249 2.22055 107.817 1.83457 107.391C1.82547 107.38 1.81455 107.364 1.81455 107.351C1.82001 106.798 1.43949 106.378 1.27381 105.883C0.51824 103.625 0.938812 101.327 0.913322 99.0577C0.840496 92.4597 0.886012 85.858 0.886012 79.26C0.886012 78.8146 0.873268 78.3656 0.926067 77.9257C0.975225 77.528 1.10449 77.1413 1.20099 76.7509C1.22465 76.6593 1.29384 76.5713 1.2902 76.4852C1.25925 75.6109 1.79634 74.9658 2.22055 74.3023C2.46998 73.9138 2.93425 73.6682 3.27835 73.3346C3.72623 72.9021 4.35072 72.7811 4.82409 72.4604C5.57238 71.9527 6.32795 72.1836 7.0817 72.1231C7.53686 72.0865 7.99749 72.114 8.45629 72.1195C8.7658 72.1231 9.09898 72.0682 9.28469 72.4274C9.30836 72.4732 9.39393 72.5154 9.44673 72.5099C10.2424 72.4475 10.7358 73.0249 11.251 73.4574C11.7298 73.8588 12.0903 74.4123 12.4599 74.931C12.7166 75.2902 12.9715 75.6806 13.0971 76.0966C13.2555 76.619 13.2228 77.1981 13.3757 77.7223C13.8818 79.4598 13.5487 81.2358 13.687 82.9879C13.7071 83.239 13.8218 83.622 13.9929 83.688C14.2897 83.8053 14.5955 83.7393 14.9506 83.4827C15.5714 83.0374 15.819 82.3666 16.2796 81.8406C16.6037 81.4703 16.9679 81.1349 17.312 80.7831C17.3447 80.7501 17.3866 80.7079 17.3902 80.6676C17.4394 80.0994 17.8946 79.7952 18.184 79.3791C18.5391 78.8641 18.8067 78.2905 19.1454 77.7608C19.4767 77.2403 19.8481 76.7473 20.2013 76.2414C20.2359 76.1901 20.2705 76.1369 20.2924 76.0801C20.3925 75.8235 20.3233 75.4661 20.7348 75.391C20.7821 75.3818 20.7858 75.1289 20.8094 74.997L20.804 74.9915Z" fill="#D12602"/>
<path d="M108.39 72.1745C109.574 72.1745 110.775 72.0444 111.931 72.224C112.627 72.3321 113.448 72.3101 114.005 72.6254C114.635 72.9828 115.432 72.6657 115.929 73.2833C115.997 73.3677 116.206 73.32 116.335 73.3713C116.488 73.4336 116.625 73.5344 116.765 73.6242C116.803 73.6481 116.822 73.7085 116.862 73.7232C117.289 73.8845 117.73 74.0146 118.143 74.2071C118.491 74.3702 118.833 74.57 119.132 74.8119C119.511 75.1198 119.86 75.4717 120.19 75.8327C120.459 76.1278 120.69 76.4669 120.923 76.7821C121.289 77.2751 121.238 77.8543 121.515 78.3547C121.728 78.7414 121.654 79.3114 121.641 79.7989C121.63 80.2003 121.766 80.6676 121.313 80.9554C121.277 80.9792 121.286 81.0745 121.271 81.135C121.113 81.8919 120.696 82.4729 120.137 82.9953C119.769 83.3398 119.345 83.5818 118.959 83.8695C117.828 84.7108 116.596 84.6338 115.358 84.5256C114.914 84.4872 114.495 84.1261 114.067 83.9117C114.04 83.897 114.02 83.8677 113.99 83.8567C113.477 83.6752 112.964 83.4956 112.448 83.3178C112.419 83.3087 112.368 83.3233 112.357 83.3068C111.951 82.7313 111.256 83.0942 110.79 82.8303C110.051 82.4124 109.284 82.5866 108.539 82.6067C107.955 82.6214 107.332 82.7533 106.815 83.0118C106.518 83.1602 106.216 83.25 105.929 83.3838C105.61 83.5323 105.366 83.8365 105.087 84.0711C104.742 84.3625 104.303 84.5916 104.066 84.9545C103.727 85.4695 103.094 85.7408 102.977 86.4592C102.91 86.8789 102.571 87.2547 102.358 87.6505C102.313 87.733 102.256 87.8228 102.249 87.9108C102.133 89.2982 101.608 90.6417 101.819 92.0639C101.856 92.3132 101.81 92.5752 101.848 92.8245C101.874 92.9931 101.987 93.1471 102.04 93.3157C102.109 93.5356 102.174 93.7592 102.205 93.9865C102.26 94.3805 102.136 94.8112 102.533 95.1228C102.63 95.1998 102.589 95.4326 102.661 95.57C102.864 95.9622 103.094 96.3398 103.312 96.7228C103.358 96.8035 103.385 96.8951 103.44 96.9666C103.684 97.2928 103.982 97.5861 104.172 97.9416C104.498 98.5501 105.18 98.6564 105.645 99.078C105.97 99.3749 106.518 99.4335 106.975 99.5728C107.44 99.7158 107.906 99.8789 108.381 99.9394C108.909 100.005 109.452 99.9815 109.987 99.9595C110.152 99.9522 110.315 99.8202 110.477 99.7451C110.586 99.6938 110.706 99.5838 110.802 99.6021C111.267 99.6864 111.376 99.2136 111.685 99.0578C111.829 98.9863 111.946 98.8067 112.017 98.6491C112.084 98.5043 112.128 98.31 112.091 98.1597C111.964 97.6392 111.174 97.0747 110.617 97.0692C110.285 97.0656 109.949 97.1004 109.623 97.0527C109.399 97.0197 109.027 97.2562 108.967 96.7815C108.964 96.7522 108.853 96.7082 108.798 96.7173C108.215 96.8126 107.733 96.5011 107.34 96.1913C106.819 95.7826 106.254 95.4234 105.892 94.7746C105.703 94.4355 105.685 94.0305 105.477 93.7849C104.776 92.9583 105.308 92.0291 105.153 91.1677C105.714 90.5958 105.448 89.5878 106.287 89.1204C106.695 88.8932 106.963 88.413 107.294 88.0483C107.305 88.0373 107.314 88.0171 107.327 88.0153C107.698 87.942 108.028 87.667 108.346 87.5974C110.04 87.2235 111.755 86.9413 113.506 87.1264C113.85 87.163 114.203 87.13 114.548 87.1722C114.77 87.1997 114.977 87.328 115.199 87.3683C115.582 87.4398 115.968 87.4856 116.354 87.5259C116.614 87.5534 116.862 87.5058 117.062 87.7917C117.151 87.9181 117.47 87.8888 117.685 87.9163C117.939 87.9511 118.236 87.876 118.356 88.2242C118.375 88.2792 118.482 88.3342 118.549 88.336C119.072 88.3452 119.352 88.7356 119.689 89.0435C119.744 89.0929 119.824 89.1259 119.898 89.1406C120.332 89.2212 120.568 89.5768 120.82 89.87C121.158 90.2623 121.386 90.7535 121.723 91.1493C122.216 91.7267 122.322 92.4378 122.571 93.1141C123.283 95.033 122.815 96.9739 122.859 98.902C122.864 99.1274 122.7 99.3584 122.613 99.5875C122.591 99.6461 122.535 99.7048 122.538 99.7598C122.586 100.458 122.334 101.105 122.043 101.69C121.83 102.117 121.781 102.637 121.368 102.985C121.144 103.174 121.055 103.519 120.88 103.775C120.492 104.344 120.288 105.016 119.698 105.474C119.157 105.894 118.753 106.492 118.253 106.97C118.021 107.19 117.694 107.304 117.421 107.481C117.027 107.736 116.649 108.013 116.255 108.266C116.17 108.321 116.037 108.293 115.94 108.337C115.775 108.414 115.62 108.515 115.462 108.608C115.411 108.638 115.365 108.702 115.314 108.704C114.983 108.715 114.753 108.924 114.478 109.059C113.91 109.343 113.242 109.441 112.607 109.563C112.234 109.637 111.831 109.536 111.516 109.868C111.429 109.959 111.219 109.959 111.065 109.961C109.155 109.97 107.245 109.974 105.335 109.97C105.029 109.97 104.771 109.895 104.487 109.686C104.239 109.503 103.789 109.604 103.429 109.572C103.143 109.549 102.813 109.637 102.653 109.263C102.631 109.211 102.486 109.211 102.397 109.193C102.023 109.116 101.672 109.158 101.304 108.834C101.038 108.599 100.485 108.585 100.097 108.35C99.671 108.093 99.2267 107.868 98.7971 107.619C98.2327 107.291 97.6665 106.966 97.1184 106.613C96.8726 106.455 96.6705 106.228 96.4521 106.03C96.2227 105.823 95.9951 105.61 95.7675 105.401C95.5909 105.24 95.3997 105.093 95.2377 104.919C94.8608 104.518 94.4931 104.107 94.1271 103.693C94.067 103.625 94.0288 103.53 94.0015 103.442C93.8758 103.022 93.6137 102.709 93.2732 102.448C93.2313 102.417 93.2222 102.346 93.1931 102.296C92.9346 101.838 92.6578 101.387 92.4175 100.918C92.2245 100.542 92.0042 100.157 91.9186 99.7524C91.8003 99.1953 91.2796 98.7554 91.4544 98.1194C90.9173 97.729 91.2596 97.0491 91.0083 96.6257C90.5004 95.7661 90.8608 94.8021 90.5659 93.9718C90.0616 92.5496 90.4384 91.1108 90.2928 89.6886C90.2618 89.3807 90.4603 89.049 90.5477 88.7264C90.5805 88.6054 90.6041 88.4808 90.6096 88.3562C90.6278 87.9438 90.6369 87.5296 90.6496 87.1172C90.6624 86.7287 90.6424 86.3621 90.9009 85.9955C91.072 85.7536 91.0047 85.3522 91.0866 85.0333C91.1594 84.7511 91.2942 84.4853 91.3888 84.2086C91.4343 84.0766 91.458 83.9355 91.4726 83.7962C91.5054 83.4883 91.4453 83.1547 91.7912 82.9549C91.8586 82.9165 91.8658 82.757 91.8822 82.6507C91.9168 82.4088 91.864 82.1265 92.1917 82.0331C92.2154 82.0257 92.2354 81.9872 92.2464 81.9579C92.4084 81.529 92.5486 81.091 92.7379 80.675C92.8963 80.3249 93.0857 79.9822 93.3114 79.6724C93.5609 79.3315 93.8758 79.0566 94.0179 78.6241C94.1034 78.3675 94.3674 78.1659 94.564 77.9533C94.9245 77.5647 95.2796 77.1707 95.6637 76.8078C96.0169 76.4761 96.4011 76.1773 96.778 75.8712C97.2495 75.4882 97.7065 75.0813 98.2108 74.7459C98.5768 74.5021 99.0155 74.3665 99.4106 74.1631C99.8166 73.9523 100.21 73.7159 100.609 73.4904C100.636 73.4758 100.652 73.4391 100.68 73.43C101.215 73.265 101.745 73.0854 102.285 72.9479C102.582 72.8728 102.928 72.9901 103.13 72.618C103.174 72.5356 103.422 72.5576 103.576 72.5466C104.039 72.5099 104.525 72.5997 104.904 72.1983C104.98 72.1177 105.171 72.1269 105.31 72.125C106.336 72.1195 107.363 72.1214 108.39 72.1214C108.39 72.1379 108.39 72.1543 108.39 72.1708V72.1745Z" fill="#D12602"/>
<path d="M50.0785 91.1218C50.0785 95.2089 50.0876 99.2942 50.0658 103.381C50.064 103.823 49.8946 104.263 49.8018 104.703C49.7781 104.811 49.7508 104.919 49.7199 105.025C49.5742 105.548 49.5396 106.149 49.2483 106.57C48.9133 107.056 48.7021 107.624 48.2142 108.046C47.9101 108.31 47.5806 108.566 47.2984 108.843C46.8942 109.239 46.4609 109.413 45.9657 109.638C44.4218 110.346 42.8505 110.003 41.2975 109.921C40.8751 109.899 40.3599 109.659 39.9375 109.457C39.5242 109.259 39.2912 108.698 38.8833 108.46C38.4391 108.2 38.2425 107.723 37.8201 107.474C37.7946 107.459 37.7691 107.435 37.7582 107.41C37.5907 107.007 37.5069 106.534 37.2429 106.213C36.7823 105.656 37.0791 104.928 36.795 104.43C36.2907 103.544 36.5238 102.648 36.5201 101.772C36.4928 94.0763 36.5037 86.3804 36.5165 78.6845C36.5165 78.4224 36.6785 78.1659 36.7313 77.9001C36.8005 77.561 36.8369 77.2146 36.8824 76.8701C36.917 76.6208 36.7987 76.3074 37.1664 76.2011C37.1901 76.1938 37.2101 76.1553 37.2211 76.1278C37.394 75.7008 37.5451 75.2609 37.7454 74.8485C37.8601 74.6121 38.0385 74.3995 38.2206 74.2089C38.6011 73.8093 38.9998 73.4244 39.4022 73.0469C39.4714 72.9827 39.6079 72.9974 39.7008 72.9516C39.8683 72.8691 40.0285 72.7683 40.1887 72.673C40.2124 72.6583 40.2233 72.6125 40.247 72.6052C40.7914 72.4384 41.3285 72.1781 41.8819 72.1305C42.7905 72.0517 43.7117 72.1012 44.6275 72.1158C44.9953 72.1213 45.394 72.0682 45.6598 72.4402C45.6962 72.4916 45.8018 72.4989 45.8783 72.5135C46.6193 72.6602 47.2001 73.0652 47.688 73.6297C47.9739 73.9615 48.287 74.2675 48.5765 74.5956C48.6803 74.7129 48.7549 74.8577 48.835 74.9933C49.0426 75.3397 49.2447 75.6861 49.4486 76.0343C49.4959 76.1168 49.5724 76.192 49.5888 76.2799C49.7563 77.1725 50.0421 78.0651 50.0549 78.9595C50.1058 83.0136 50.0767 87.0695 50.0767 91.1236H50.0676L50.0785 91.1218Z" fill="#D12602"/>
<path d="M74.4422 69.5995C73.8887 69.5995 73.337 69.6068 72.7836 69.5976C72.414 69.5903 72.0207 69.6489 71.7421 69.3044C71.7148 69.2714 71.662 69.2494 71.6183 69.2384C70.9975 69.0753 70.3603 68.9525 69.7576 68.738C69.3553 68.5951 68.9984 68.322 68.6215 68.1057C68.5961 68.0911 68.5797 68.0508 68.5524 68.0453C67.9261 67.917 67.5073 67.4313 66.9902 67.116C66.7281 66.9566 66.5151 66.7165 66.2875 66.502C66.1436 66.3664 66.0053 66.2216 65.8796 66.0677C65.4791 65.5765 65.0603 65.0981 64.7017 64.5776C64.4777 64.2532 64.4377 63.7419 64.1555 63.5293C63.6147 63.1224 64.0244 62.3435 63.4472 62.0026C63.3963 61.9732 63.429 61.8211 63.3999 61.735C63.287 61.3922 63.4491 60.9524 63.0303 60.7104C62.9702 60.6756 62.9812 60.507 62.9666 60.3989C62.8938 59.8545 62.8337 59.3102 62.7536 58.7677C62.5151 57.1567 62.4168 55.5512 62.9029 53.9621C62.9611 53.7715 62.9102 53.5479 62.9502 53.3481C63.023 52.9889 63.1268 52.6352 63.2197 52.2796C63.2433 52.188 63.287 52.1019 63.3125 52.0102C63.4764 51.4127 63.4837 50.6833 63.846 50.2581C64.1664 49.8823 63.9971 49.338 64.4814 49.0558C64.7399 48.9055 64.8146 48.4619 65.0167 48.1815C65.3735 47.683 65.7158 47.157 66.1546 46.7373C66.6643 46.2479 67.307 45.8979 67.8259 45.414C68.2538 45.0163 68.7417 44.7927 69.2642 44.5874C69.7194 44.4078 70.1509 44.1714 70.5951 43.9625C70.6807 43.9221 70.7699 43.88 70.861 43.8635C72.3211 43.6014 73.7667 43.2202 75.2742 43.3778C75.6657 43.4181 76.0644 43.3741 76.4576 43.3943C76.8363 43.4145 77.2351 43.3246 77.5482 43.6949C77.6483 43.8122 77.936 43.7773 78.1381 43.7957C78.5569 43.8342 78.9993 43.792 79.3215 44.1531C79.3416 44.1751 79.3798 44.2026 79.4016 44.1971C80.0188 44.0504 80.3793 44.6424 80.9219 44.7377C81.1167 44.7707 81.2878 44.9613 81.4626 45.0896C81.8613 45.3829 82.3238 45.6266 82.6297 45.9987C82.9119 46.3414 83.0229 46.8271 83.2159 47.2468C83.3142 47.4594 83.4144 47.6738 83.54 47.87C83.6529 48.0459 83.56 49.0264 83.4016 49.1804C83.3397 49.2409 83.2487 49.3289 83.256 49.3948C83.3179 49.93 83.0448 50.3405 82.7571 50.7291C82.5933 50.949 82.2856 51.0663 82.1399 51.2936C81.7703 51.8709 81.0785 51.6895 80.5796 52.0047C80.2574 52.2082 79.6547 51.9864 79.1832 51.9186C78.992 51.8911 78.8099 51.7775 78.6315 51.6876C78.4804 51.6107 78.3384 51.5135 78.1945 51.4219C78.1563 51.3981 78.1326 51.3394 78.0944 51.3303C77.337 51.1561 76.6433 50.7328 75.8204 50.8171C75.1941 50.8812 74.5587 50.8482 73.9306 50.9032C73.7194 50.9215 73.5209 51.081 73.317 51.1781C73.2624 51.2038 73.2114 51.2698 73.1623 51.2679C72.596 51.2368 72.3302 51.6382 72.028 52.0194C71.8569 52.2356 71.6147 52.3933 71.4017 52.5747C71.3671 52.6059 71.3052 52.6224 71.2906 52.659C71.1213 53.0824 70.9574 53.5076 70.7972 53.9346C70.7262 54.1216 70.6661 54.314 70.6006 54.5046C70.5259 54.7209 70.3894 54.9353 70.3821 55.1534C70.3548 56.0753 70.3639 56.9972 70.3676 57.9191C70.3694 58.3278 70.3275 58.753 70.6934 59.0628C70.7371 59.0994 70.7772 59.1837 70.7645 59.2351C70.6297 59.805 71.1359 60.1478 71.2651 60.6335C71.3361 60.9047 71.6893 61.1045 71.9242 61.3281C72.0753 61.4729 72.2246 61.625 72.3994 61.735C72.8127 61.9934 73.2369 62.2353 73.6666 62.4663C73.7831 62.5286 73.9342 62.5451 74.0708 62.5524C74.5587 62.5799 75.0485 62.5744 75.5346 62.6165C76.1044 62.666 76.5086 62.3086 76.9146 62.0264C77.2223 61.8119 76.8855 61.0385 76.5942 60.8296C75.9606 60.3769 75.2524 60.5418 74.5787 60.419C74.2601 60.3604 73.9652 60.0873 73.6921 59.871C73.4335 59.6676 73.2151 59.411 72.9802 59.1764C72.9583 59.1544 72.9329 59.1306 72.9238 59.1031C72.6761 58.3407 72.2246 57.5819 72.5068 56.7681C72.667 56.3063 72.7016 55.7381 73.1932 55.4119C73.3207 55.3276 73.3279 55.0765 73.4445 54.961C73.8232 54.5853 74.2346 54.2755 74.799 54.1986C75.094 54.1582 75.3634 53.8962 75.6547 53.876C76.4868 53.8192 77.3243 53.8302 78.1581 53.8247C78.4403 53.8247 78.728 53.8357 79.0047 53.8833C79.2068 53.9181 79.3944 54.0263 79.5928 54.0923C79.7366 54.1417 79.8841 54.1949 80.0352 54.2151C80.3611 54.259 80.7416 54.1344 80.9401 54.5468C80.9638 54.5944 81.0821 54.6201 81.1549 54.6164C81.7521 54.5853 82.0744 54.9628 82.4166 55.3825C82.7152 55.7491 83.114 56.0332 83.469 56.3521C83.5018 56.3832 83.56 56.4016 83.5709 56.4382C83.7239 56.9056 83.8695 57.3748 84.017 57.844C84.0916 58.0804 84.1681 58.315 84.2373 58.5533C84.3065 58.7934 84.4048 59.0353 84.4212 59.279C84.454 59.7867 84.4685 60.2981 84.4321 60.8039C84.4084 61.1247 84.2628 61.4344 84.2027 61.7533C84.1208 62.1877 84.0844 62.6294 84.0006 63.0637C83.9606 63.2727 83.8568 63.4688 83.7785 63.6704C83.7257 63.8097 83.6765 63.9508 83.6128 64.0846C83.5272 64.2642 83.4289 64.4383 83.3343 64.6124C83.2997 64.6784 83.2268 64.7371 83.2232 64.8031C83.1904 65.3107 82.8554 65.6095 82.5077 65.9082C82.4458 65.9614 82.4039 66.064 82.3966 66.1483C82.3584 66.5809 82.0125 66.7201 81.7139 66.9126C81.6429 66.9584 81.6046 67.0482 81.5409 67.1087C81.3916 67.248 81.2405 67.3836 81.0857 67.5137C80.8163 67.741 80.5432 67.9646 80.2719 68.19C80.2173 68.2359 80.1736 68.3257 80.1172 68.333C79.8113 68.3678 79.5782 68.5089 79.307 68.6629C78.7863 68.9561 78.1509 69.0515 77.5573 69.2017C77.3097 69.2641 77.0166 69.1706 76.8855 69.5133C76.8618 69.5738 76.6579 69.5811 76.5378 69.583C75.8423 69.5885 75.1486 69.5866 74.4531 69.5866V69.6086L74.4422 69.5995Z" fill="#D12602"/>
<path d="M110.273 43.8177C112.403 43.8177 113.901 43.8012 115.4 43.8324C115.698 43.8379 115.988 44.0486 116.29 44.1311C116.587 44.2118 116.915 44.2026 117.193 44.3181C117.583 44.4775 117.943 44.7103 118.311 44.921C118.529 45.0457 118.721 45.2344 118.954 45.3133C119.751 45.5845 120.062 46.4093 120.718 46.8381C120.793 46.8876 120.789 47.0434 120.845 47.1369C120.929 47.2762 121.037 47.4008 121.124 47.5383C121.171 47.6116 121.197 47.6977 121.235 47.7765C121.335 47.9763 121.439 48.1742 121.537 48.3758C121.577 48.4583 121.606 48.5445 121.636 48.6306C121.765 49.0063 121.9 49.3784 122.018 49.7578C122.06 49.8916 122.071 50.0382 122.072 50.1793C122.076 51.037 122.087 51.8966 122.065 52.7544C122.06 53.0183 121.972 53.2822 121.909 53.5406C121.832 53.8559 121.754 54.1729 121.648 54.4808C121.581 54.6751 121.464 54.8511 121.366 55.0343C121.337 55.0893 121.271 55.1388 121.271 55.1901C121.277 55.762 120.767 56.035 120.56 56.4657C120.245 57.1127 119.66 57.4829 119.274 58.0218C119.103 58.26 119.314 58.7806 119.367 59.1709C119.376 59.2314 119.491 59.2681 119.524 59.3341C119.693 59.6658 119.784 60.069 120.03 60.3238C120.463 60.771 120.547 61.4509 121.128 61.8138C121.39 61.9769 121.475 62.4113 121.666 62.7064C121.825 62.952 122.027 63.1682 122.196 63.4083C122.304 63.5605 122.391 63.7291 122.477 63.8959C122.504 63.949 122.468 64.0498 122.502 64.0791C123.212 64.695 122.83 65.5435 122.97 66.2785C123.114 67.0244 122.71 67.6714 122.367 68.2047C122.04 68.7161 121.381 69.0057 120.762 69.3026C119.979 69.6801 119.252 69.5189 118.504 69.5683C118.318 69.5812 118.12 69.4034 117.929 69.3117C117.874 69.2861 117.827 69.2274 117.774 69.2238C117.257 69.1834 116.986 68.8041 116.667 68.4632C116.336 68.1076 115.935 67.818 115.578 67.4845C115.433 67.3488 115.294 67.1875 115.203 67.0116C114.997 66.6194 114.83 66.2052 114.63 65.8075C114.537 65.6223 114.358 65.4721 114.293 65.2814C114.114 64.7573 113.982 64.2166 113.819 63.6869C113.743 63.4358 113.645 63.1921 113.554 62.9465C113.515 62.8438 113.459 62.7467 113.433 62.6422C113.281 62.0154 113.144 61.3849 112.973 60.7636C112.94 60.6427 112.778 60.4887 112.662 60.4759C112.487 60.4576 112.272 60.507 112.123 60.606C111.746 60.8553 111.731 61.2475 111.737 61.6709C111.757 63.1023 111.748 64.5318 111.737 65.9632C111.735 66.2858 111.797 66.6377 111.442 66.8613C111.369 66.9071 111.338 67.0611 111.331 67.1655C111.285 67.9481 110.624 68.2781 110.233 68.8114C109.892 69.2751 109.286 69.0203 109.062 69.5243C109.026 69.605 108.738 69.5885 108.567 69.5903C108.094 69.5977 107.62 69.5922 107.145 69.5867C106.917 69.5848 106.659 69.6453 106.564 69.3209C106.55 69.2714 106.435 69.2311 106.364 69.2256C105.798 69.1798 105.47 68.8077 105.106 68.4137C104.616 67.8803 104.45 67.259 104.234 66.5901C103.688 64.9094 103.953 63.2122 103.933 61.5261C103.884 57.472 103.915 53.4178 103.921 49.3637C103.921 48.7754 103.924 48.1852 103.992 47.6024C104.052 47.0691 104.063 46.4478 104.345 46.0409C104.687 45.546 104.842 44.9082 105.439 44.549C105.657 44.417 105.887 44.3181 106.102 44.1898C107.64 43.2697 109.317 44.0211 110.273 43.8159V43.8177ZM111.305 52.3365H111.307C111.307 52.8295 111.302 53.3225 111.309 53.8155C111.314 54.1143 111.766 54.6421 112.039 54.611C112.713 54.5358 113.384 54.8016 114.076 54.3012C114.522 53.9787 114.83 53.559 114.97 53.1759C115.3 52.2815 115.014 51.3743 114.53 50.5569C114.522 50.544 114.508 50.5257 114.495 50.5257C113.989 50.4689 113.657 49.9117 113.08 50.0345C112.884 50.0767 112.671 50.0363 112.467 50.0363C111.609 50.0363 111.314 50.3296 111.305 51.191C111.301 51.5722 111.305 51.9534 111.305 52.3347V52.3365Z" fill="#D12602"/>
<path d="M43.1163 56.4657C43.1163 53.3812 43.1108 50.2984 43.1235 47.2138C43.1235 46.8858 42.9815 46.4661 43.4549 46.2883C43.4858 46.2773 43.4968 46.171 43.4931 46.1105C43.4676 45.5607 43.8136 45.2711 44.2214 45.0053C44.3343 44.9302 44.3598 44.7304 44.4654 44.6314C45.1426 44.0101 45.9419 43.7242 46.8632 43.737C49.4358 43.7719 52.0102 43.7535 54.5827 43.8415C55.2145 43.8635 55.8772 44.0963 56.4289 44.4977C56.4908 44.5416 56.5709 44.5691 56.6474 44.5838C57.2154 44.6828 57.6596 44.9797 58.0584 45.3921C58.2441 45.5845 58.5263 45.6798 58.7429 45.8466C59.1435 46.1527 59.4839 46.5009 59.666 46.9994C59.7425 47.2065 59.9719 47.3513 60.1048 47.5437C60.2432 47.7453 60.3451 47.9744 60.4726 48.1834C60.5618 48.33 60.6983 48.4528 60.7566 48.6068C60.8221 48.779 60.8185 48.9788 60.8585 49.1639C60.9477 49.5873 61.077 50.0052 61.1316 50.434C61.2318 51.2423 61.3592 52.0432 61.0024 52.8497C60.8458 53.2034 60.8949 53.6506 60.8494 54.0556C60.8221 54.2921 60.9277 54.5871 60.5654 54.6733C60.529 54.6824 60.4944 54.7759 60.4871 54.8327C60.3761 55.6575 59.8371 56.222 59.3565 56.8433C59.098 57.1769 58.8886 57.4719 58.4899 57.6827C58.3133 57.7762 58.2787 58.3407 58.3424 58.6577C58.4535 59.2113 58.6992 59.7244 59.0761 60.1753C59.311 60.4557 59.4384 60.8241 59.6332 61.1412C59.8026 61.4143 59.981 61.6855 60.1849 61.9311C60.5035 62.3178 60.9004 62.6514 61.1662 63.0711C61.4211 63.4743 61.4594 64.0315 61.7525 64.3889C62.3424 65.1037 62.0146 65.8917 62.0674 66.645C62.0802 66.8191 61.9182 67.0061 61.8399 67.1875C61.7962 67.2865 61.7215 67.391 61.727 67.4899C61.7507 67.9481 61.3355 68.1003 61.1225 68.388C60.9368 68.6391 60.6746 68.8315 60.4471 69.0515C60.4143 69.0826 60.3833 69.1431 60.3487 69.1449C59.7097 69.1853 59.2199 69.7937 58.5117 69.605C58.2459 69.5335 57.9418 69.6233 57.6633 69.5793C57.4685 69.55 57.2882 69.4217 57.1025 69.3337C57.0333 69.3007 56.9714 69.2293 56.9023 69.2256C56.3779 69.1944 56.1503 68.6812 55.768 68.5053C55.3219 68.3 55.1362 67.9426 54.8722 67.6256C54.468 67.138 54.1494 66.5827 53.7999 66.0585C53.4776 65.5747 53.6342 64.8984 53.0843 64.5465C53.0042 64.4952 53.0334 64.2789 53.0042 64.1414C52.9605 63.9325 53.088 63.6429 52.7147 63.5824C52.6601 63.5733 52.6365 63.3039 52.6201 63.1536C52.5746 62.7265 52.6893 62.2812 52.3033 61.9109C52.1704 61.7845 52.2723 61.4381 52.1849 61.2255C52.0721 60.9542 51.9264 60.6537 51.7061 60.4832C51.3838 60.2339 50.925 60.485 50.9159 60.9084C50.8886 62.2738 50.9105 63.6411 50.8832 65.0083C50.8741 65.5087 51.0507 66.0677 50.5755 66.4782C50.5573 66.4947 50.5482 66.5424 50.5555 66.5681C50.7193 67.1967 50.2186 67.6109 50.0329 68.1222C49.9383 68.3843 49.6014 68.5694 49.352 68.7637C49.0261 69.0166 48.6856 69.2549 48.3379 69.4785C48.2268 69.55 48.0721 69.5793 47.9374 69.5811C47.3384 69.594 46.723 69.6728 46.1422 69.5665C45.6269 69.473 45.0898 69.3154 44.7057 68.8462C44.4071 68.4815 44.0175 68.1956 43.6679 67.873C43.6333 67.8418 43.5805 67.8143 43.5714 67.7777C43.4112 67.1215 43.1308 66.4672 43.1217 65.8093C43.0744 62.6935 43.0999 59.5778 43.0999 56.4621C43.1053 56.4621 43.1108 56.4621 43.1163 56.4621V56.4657ZM50.5008 52.2888H50.5099C50.5099 52.8295 50.4535 53.3775 50.5336 53.9053C50.5718 54.1601 50.8795 54.5853 51.0397 54.5743C51.7334 54.5267 52.4344 54.8822 53.1444 54.2994C53.667 53.8705 53.9473 53.3408 54.1512 52.8057C54.326 52.3493 54.3934 51.7188 53.9055 51.2661C53.7398 51.1122 53.6123 50.9142 53.4812 50.7255C53.2045 50.3204 52.875 50.0217 52.3452 50.0437C52.0775 50.0547 51.8081 50.04 51.5404 50.0437C50.794 50.0492 50.5063 50.3406 50.5008 51.0993C50.4972 51.4971 50.5008 51.8929 50.5008 52.2907V52.2888Z" fill="#D12602"/>
<path d="M21.179 54.6036C21.179 51.9974 21.1736 49.3893 21.19 46.7831C21.19 46.5687 21.3411 46.3469 21.443 46.1398C21.5978 45.8282 21.8727 45.5387 21.9109 45.2179C21.9601 44.8129 22.2969 44.6681 22.4353 44.3657C22.448 44.3363 22.4608 44.296 22.4826 44.2869C22.8668 44.1219 23.2509 43.9515 23.6406 43.803C23.981 43.6747 24.3415 43.4603 24.6783 43.4841C25.3884 43.5354 26.164 43.5776 26.7684 43.8983C27.118 44.0834 27.7916 44.1421 27.8353 44.8349C27.8481 45.0475 28.1266 45.2344 28.2596 45.4488C28.3888 45.6578 28.5436 45.8741 28.5891 46.1068C28.6619 46.4844 28.5545 46.8894 28.915 47.2028C29.0169 47.2908 28.9733 47.5639 28.9733 47.7527C28.9769 51.9497 28.9769 56.1468 28.9805 60.3439C28.9805 60.5821 29.0406 60.8314 28.9896 61.0568C28.8786 61.5499 29.2318 61.8394 29.4739 62.1199C30.1002 62.8493 31.0324 62.7082 31.7315 62.4644C32.2595 62.2811 32.7766 61.7001 32.7675 60.8717C32.7329 57.3748 32.7584 53.876 32.762 50.379C32.762 49.7119 32.8276 49.0356 32.7529 48.3776C32.6419 47.4099 32.8913 46.477 33.2409 45.6596C33.625 44.7634 34.1912 43.825 35.4293 43.7663C35.8626 43.7462 36.2832 43.5098 36.7201 43.4639C36.975 43.4383 37.2481 43.5941 37.5103 43.6747C37.6141 43.7077 37.7233 43.8103 37.8125 43.792C38.3405 43.6894 38.6227 44.1274 39.0087 44.3253C39.4202 44.5361 39.6223 44.8935 39.8298 45.326C40.4962 46.7116 40.538 46.6915 40.538 48.2255C40.538 52.5179 40.549 56.8103 40.5271 61.1027C40.5235 61.6745 40.3451 62.2445 40.254 62.8163C40.2213 63.0198 40.2012 63.2232 40.1848 63.4285C40.1594 63.7327 40.2467 64.0773 39.868 64.2459C39.8353 64.2606 39.8171 64.3265 39.8098 64.3705C39.6914 65.0578 39.2654 65.6021 38.9104 66.1593C38.6591 66.5534 38.2149 66.8209 37.8599 67.149C37.6487 67.3451 37.4611 67.5724 37.2354 67.7502C36.9586 67.9683 36.6728 68.1955 36.356 68.3403C35.9227 68.5383 35.3619 68.5529 35.0251 68.8462C34.5408 69.2677 34.0165 69.1449 33.5012 69.2292C33.4539 69.2366 33.3847 69.2292 33.3647 69.2567C32.955 69.8139 32.3597 69.5555 31.8481 69.583C31.0288 69.6269 30.2058 69.5995 29.3847 69.5885C29.0352 69.5848 28.702 69.6269 28.3815 69.3264C28.2049 69.1596 27.8062 69.2531 27.5167 69.1834C27.1908 69.1064 26.8759 68.9818 26.5572 68.8737C26.5154 68.859 26.4808 68.8169 26.4389 68.8004C25.9947 68.6336 25.5322 68.5034 25.1098 68.2927C24.8476 68.1625 24.6492 67.906 24.418 67.7117C24.225 67.5504 24.0484 67.3323 23.8263 67.2535C23.1144 67.0024 22.8886 66.2949 22.4899 65.7873C22.022 65.1898 21.8163 64.4072 21.5304 63.6814C20.9496 62.2042 21.2118 60.7123 21.159 59.2277C21.1026 57.6882 21.1463 56.1431 21.1463 54.6018C21.1554 54.6018 21.1645 54.6018 21.1717 54.6018L21.179 54.6036Z" fill="#D12602"/>
<path d="M0.876961 56.5574C0.876961 53.427 0.90063 50.2947 0.858754 47.1644C0.849651 46.4642 1.13185 45.8869 1.4177 45.3371C1.69261 44.8056 2.29707 44.5288 2.80685 44.1787C3.56789 43.6564 4.36351 43.7554 5.1555 43.7535C7.56969 43.7499 9.98388 43.7939 12.3999 43.8342C12.7312 43.8397 13.1154 43.7719 13.323 44.1659C13.3284 44.1769 13.3503 44.1806 13.3648 44.1861C13.8309 44.3364 14.3134 44.4518 14.7613 44.6479C15.0945 44.7927 15.404 45.0163 15.6825 45.2528C16.0958 45.6028 16.4709 45.9969 16.8623 46.3726C16.8842 46.3946 16.9096 46.4166 16.9206 46.4441C17.1008 46.9004 17.2446 47.3733 17.4649 47.8095C18.1695 49.1987 17.9128 50.6741 17.84 52.1202C17.809 52.7433 17.5906 53.3647 17.403 53.9695C17.3284 54.2059 17.1008 54.3947 16.9479 54.6073C16.8204 54.7832 16.6984 54.9647 16.5783 55.1443C16.5619 55.1681 16.5801 55.2194 16.5619 55.2359C15.8701 55.8627 16.6584 55.9965 16.9169 56.2898C17.332 56.759 17.8291 57.1677 18.1786 57.679C18.439 58.0603 18.4699 58.5918 18.6957 59.006C19.4276 60.3531 18.9652 61.79 19.0507 63.1829C19.0635 63.3863 18.8741 63.6044 18.7758 63.8134C18.7558 63.8555 18.7012 63.8995 18.7084 63.9288C18.865 64.5501 18.4008 64.9827 18.2296 65.5032C18.1495 65.7451 17.9838 65.9816 17.8018 66.163C17.3302 66.634 16.8277 67.0739 16.338 67.5266C16.1814 67.6714 15.9392 67.7905 15.8846 67.9665C15.7098 68.5383 14.9706 68.1571 14.7777 68.6739C14.754 68.7362 14.5392 68.7124 14.4244 68.7564C14.1641 68.8535 13.9128 68.9782 13.6507 69.068C13.4741 69.1284 13.2865 69.1688 13.1008 69.1816C12.6766 69.2109 12.2488 69.2146 11.8227 69.2366C11.5059 69.2531 11.1655 69.1633 10.927 69.5078C10.8724 69.5848 10.6593 69.5665 10.521 69.5665C8.84779 69.5701 7.17278 69.5756 5.4996 69.5573C5.31572 69.5555 5.13729 69.3942 4.95159 69.3191C4.85327 69.2787 4.74767 69.2457 4.64207 69.2384C4.34349 69.2164 4.04308 69.2109 3.74267 69.1926C3.34759 69.1688 2.47367 68.7417 2.1678 68.4338C2.02579 68.2909 1.85283 68.1736 1.73267 68.0159C1.47596 67.6824 1.23199 67.3378 1.00987 66.9823C0.940684 66.8705 0.942504 66.7055 0.938863 66.5644C0.904271 64.913 0.860575 63.2599 0.84601 61.6085C0.829624 59.9242 0.842369 58.238 0.842369 56.5537C0.855113 56.5537 0.867858 56.5537 0.878782 56.5537L0.876961 56.5574ZM7.51689 61.0092H7.51325C7.51325 61.4857 7.48594 61.9641 7.52417 62.4388C7.54238 62.6697 7.62977 62.9446 7.78452 63.1004C8.00118 63.3149 8.29431 63.4981 8.58561 63.5806C8.8842 63.6631 9.22284 63.6228 9.54328 63.6026C9.64887 63.5953 9.74173 63.4541 9.85097 63.4322C10.2406 63.3533 10.5993 63.3863 10.9597 63.0143C11.2474 62.7192 11.5915 62.3325 11.597 62.0759C11.6152 61.2145 12.0449 60.2853 11.2856 59.4843C10.9288 59.1068 10.6266 58.7457 10.0567 58.7604C9.59972 58.7714 9.14091 58.7384 8.68393 58.7421C7.79181 58.7494 7.52235 59.0243 7.51507 59.9169C7.51325 60.2816 7.51507 60.6481 7.51507 61.0129L7.51689 61.0092ZM7.52053 51.6638C7.52053 51.6638 7.51689 51.6638 7.51507 51.6638C7.51507 52.1092 7.44952 52.5674 7.53874 52.9926C7.597 53.2767 7.87738 53.7386 8.05034 53.7367C8.88602 53.7221 9.77268 54.1509 10.5628 53.4306C10.9579 53.0714 11.282 52.747 11.2765 52.1898C11.2729 51.761 11.2929 51.3303 11.2492 50.9069C11.2292 50.7145 11.1054 50.5183 10.9852 50.3571C10.6757 49.941 10.2297 49.7449 9.78178 49.492C8.98798 49.0448 8.42904 49.459 7.81365 49.7339C7.66618 49.7999 7.5533 50.0876 7.53691 50.2838C7.49686 50.7401 7.52417 51.2038 7.52417 51.6638H7.52053Z" fill="#D12602"/>
<path d="M94.118 62.1327C95.032 62.1327 96.0097 62.1272 96.9856 62.1345C97.6173 62.14 98.2545 62.1143 98.8772 62.195C99.4179 62.2646 100.004 62.3636 100.459 62.6367C100.958 62.9373 101.339 63.4449 101.75 63.8811C101.819 63.9545 101.772 64.1304 101.812 64.2477C101.869 64.4145 101.96 64.5703 102.029 64.7334C102.083 64.8598 102.165 64.99 102.169 65.1183C102.184 65.6095 102.285 66.141 102.138 66.5845C101.981 67.0555 101.861 67.5614 101.492 67.9829C101.158 68.3641 100.752 68.5749 100.392 68.8681C99.9041 69.264 99.4034 69.1137 98.9227 69.2512C96.3993 69.9715 93.8249 69.3887 91.2796 69.5683C91.1376 69.5774 90.9883 69.4455 90.839 69.3887C90.7006 69.3355 90.5605 69.2659 90.4166 69.253C90.0234 69.2164 89.6028 69.2879 89.2423 69.1687C88.7307 68.9983 88.25 68.716 87.7785 68.4429C87.52 68.2927 87.3051 68.0654 87.0703 67.8729C87.0466 67.8528 87.0065 67.84 86.9974 67.8161C86.839 67.3928 86.5587 66.9712 86.5514 66.5442C86.4877 63.2232 86.4658 59.9003 86.4494 56.5793C86.4349 53.909 86.4403 51.2368 86.4494 48.5664C86.4512 47.8351 86.484 47.1038 86.5405 46.3762C86.555 46.1893 86.7171 46.0133 86.8117 45.8319C86.8409 45.7769 86.8955 45.7274 86.9009 45.6724C86.9537 45.1446 87.3743 44.9136 87.6838 44.5673C87.9169 44.3052 88.2136 44.3418 88.3939 44.1879C89.0875 43.5995 89.9578 43.9771 90.6551 43.7022C91.8622 43.2257 93.073 43.5189 94.2764 43.4584C95.489 43.3961 96.7525 43.2495 97.9086 43.5152C98.8754 43.737 99.9787 43.5556 100.829 44.2538C100.995 44.3895 101.226 44.5141 101.29 44.6919C101.421 45.0603 101.925 45.2271 101.816 45.7109C101.807 45.7531 101.816 45.819 101.843 45.8484C102.464 46.4788 102.24 47.2853 102.113 47.9616C102.038 48.3611 101.938 48.9036 101.501 49.2427C101.124 49.5341 100.844 49.9538 100.519 50.3167C100.49 50.3497 100.45 50.3863 100.41 50.3955C99.6473 50.5586 98.8881 50.8079 98.1162 50.8574C96.8891 50.9362 95.6528 50.8885 94.4221 50.883C94.1289 50.883 93.9232 50.9417 93.9396 51.2936C93.9432 51.3559 93.9451 51.4457 93.9086 51.4787C93.3734 51.957 93.5554 52.4354 93.956 52.8514C94.1799 53.0842 94.3838 53.3921 94.7971 53.3866C95.9332 53.3738 97.0711 53.3866 98.209 53.3976C98.4785 53.4013 98.7862 53.3261 98.9355 53.6799C98.9573 53.7312 99.072 53.766 99.1448 53.766C99.6601 53.7623 99.8039 54.2627 100.137 54.4826C100.711 54.8602 100.519 55.399 100.603 55.8902C100.627 56.0222 100.696 56.1523 100.765 56.2696C100.884 56.4694 101.007 56.6105 100.703 56.8084C100.574 56.8927 100.61 57.2391 100.574 57.4682C100.541 57.6808 100.672 57.9759 100.299 58.0162C100.286 58.0162 100.263 58.0327 100.263 58.0437C100.237 58.6082 99.7657 58.7695 99.3925 59.0188C99.2759 59.0957 99.143 59.1489 99.0138 59.2075C98.8262 59.2918 98.6387 59.3853 98.4439 59.4513C98.2691 59.5118 98.087 59.5741 97.9068 59.5778C96.8654 59.5979 95.8221 59.6053 94.7807 59.6089C94.3092 59.6108 93.9268 59.6327 93.8795 60.2925C93.8595 60.5711 93.5572 60.8497 93.6865 61.1906C93.7939 61.4747 93.9378 61.7478 94.1162 62.1382L94.118 62.1327Z" fill="#D12602"/>
<path d="M0.101997 34.4513C2.21758 18.2582 22.3065 8.81407 22.3065 8.81407C49.5341 -6.29915 83.3688 2.60595 83.3688 2.60595C108.481 9.35309 116.675 21.7656 116.675 21.7656C124.87 31.4811 122.755 36.3379 122.755 36.3379C122.667 39.6656 116.939 38.7673 116.939 38.7673L5.65311 39.0368C-1.21979 39.3063 0.101997 34.4495 0.101997 34.4495V34.4513Z" fill="#FF8730"/>
<path d="M4.40722 113.247C1.16523 113.039 -1.07597 116.345 0.534889 119.026C8.04917 131.536 35.8467 133.331 35.8467 133.331C65.5444 136.55 94.645 133.142 94.645 133.142C111.388 130.68 119.958 122.348 119.958 122.348C124.085 118.755 123.268 116.35 121.829 114.956C120.804 113.964 119.372 113.447 117.908 113.45L25.8811 113.636L4.55467 113.258C4.50491 113.254 4.45699 113.251 4.40907 113.247H4.40722Z" fill="#FF8730"/>
</svg>
