<?xml version="1.0" encoding="UTF-8"?>
<svg id="Capa_1" xmlns="http://www.w3.org/2000/svg" viewBox="0 0 308.18 307.41">
  <defs>
    <style>
      .cls-1 {
        fill: #f8f6ea;
      }
    </style>
  </defs>
  <path class="cls-1" d="M.01,153.81c.29-5.48.33-10.99.95-16.43.69-5.96,1.81-11.89,2.97-17.79.65-3.29,1.72-6.51,2.69-9.73,1.03-3.41,2.06-6.82,3.28-10.16,1.02-2.79,2.23-5.51,3.49-8.2,1.93-4.11,3.8-8.27,6.02-12.23,2.64-4.71,5.52-9.29,8.47-13.81,1.58-2.42,3.54-4.59,5.28-6.91,4.88-6.5,10.67-12.15,16.44-17.81,1.21-1.19,2.69-2.09,3.99-3.18.95-.79,1.75-1.75,2.73-2.49,3.67-2.79,7.33-5.6,11.1-8.26,3.17-2.24,6.43-4.38,9.77-6.35,2.55-1.5,5.28-2.69,7.95-3.98,3.08-1.49,6.15-3.03,9.29-4.4,4.36-1.89,8.76-3.68,13.38-4.9,2.94-.77,5.85-1.65,8.77-2.47,6.96-1.95,14.1-2.91,21.25-3.83,7.64-.98,15.32-1.02,22.98-.72,4.94.2,9.87.94,14.8,1.41,6.28.6,12.4,2.05,18.46,3.65,6.83,1.8,13.51,4.14,20.05,6.82,2.53,1.03,3.39,2.41,3.13,5.06-.1,1.05-.18,2.11-.17,3.17.03,6.75.17,13.5.12,20.24-.05,5.82-.59,11.62-1.46,17.38-.44,2.95-1.22,5.81-1.86,8.71-1.18,5.32-3.12,10.37-5.03,15.42-1.51,4-3.46,7.82-5.67,11.49-1.02,1.69-1.93,3.46-3.03,5.1-1.88,2.78-3.77,5.57-5.86,8.2-2.62,3.31-5.36,6.53-8.21,9.65-1.59,1.74-3.49,3.2-5.28,4.75-1.6,1.38-3.2,2.75-4.87,4.05-2.71,2.11-5.45,4.17-8.2,6.21-2.95,2.2-5.92,4.38-8.91,6.52-2.47,1.76-4.99,3.44-7.48,5.18-1.62,1.14-3.21,2.32-4.81,3.49-2.29,1.67-4.58,3.35-6.88,5-2.94,2.11-5.91,4.19-8.85,6.29-4.66,3.33-9.33,6.66-13.98,10.01-4.54,3.28-9.03,6.63-13.59,9.9-4.66,3.34-9.38,6.61-14.05,9.93-2.74,1.95-5.42,3.98-8.16,5.94-3.48,2.49-7.04,4.87-10.46,7.44-2.47,1.86-4.79,3.94-7.15,5.94-2,1.7-4,3.42-5.95,5.18-.87.79-1.68,1.66-2.44,2.56-2.93,3.48-5.93,6.9-8.7,10.5-2.04,2.65-3.82,5.51-5.6,8.34-1.96,3.12-3.81,6.32-5.67,9.5-.46.79-.7,1.72-1.17,2.5-.97,1.64-1.89,1.71-2.99.2-1.87-2.56-3.74-5.12-5.45-7.78-2.28-3.54-4.5-7.13-6.55-10.8-1.67-2.99-3.09-6.13-4.54-9.24-3.09-6.65-5.87-13.43-7.82-20.5-1.42-5.15-2.76-10.33-3.79-15.56C.91,172.72-.12,163.33.01,153.81Z"/>
  <path class="cls-1" d="M151.29,234.24c20.38,0,40.75.01,61.13-.02,2.24,0,4.54-.04,6.71-.5,1.76-.37,3.43-1.31,5.06-2.15,2.97-1.52,4.98-3.98,6.74-6.77,1.94-3.07,2.34-6.39,2.35-9.86.03-11.11.1-22.23.06-33.34,0-2.27.53-4.28,1.58-6.25,1.24-2.3,2.64-4.45,4.99-5.76,1.78-.99,3.56-2.04,5.45-2.79,2.11-.84,3.95-2.09,5.08-3.92,1.13-1.83,1.65-4.05.85-6.27-1.11-3.11-2.27-6.2-3.43-9.29-1.27-3.39-2.54-6.79-3.88-10.16-1.29-3.25-2.71-6.45-4.02-9.7-.84-2.08-1.55-4.2-2.36-6.3-.92-2.4-1.73-4.86-2.87-7.15-1.04-2.09-1.48-4.21-1.48-6.5.01-6.88.01-13.76.01-20.64,0-16.54,0-33.08-.01-49.62,0-4.03-.09-8.06-.12-12.09,0-.46.03-.93.13-1.38.21-.89.84-1.18,1.66-.91.55.18,1.07.51,1.56.84,2.43,1.58,4.87,3.14,7.25,4.79,1.52,1.05,2.98,2.18,4.38,3.38,4.17,3.56,8.35,7.11,12.41,10.79,1.99,1.81,3.71,3.92,5.58,5.87,1.5,1.57,3.07,3.07,4.56,4.65.9.96,1.78,1.96,2.56,3.02,3.72,5.12,7.56,10.16,11.06,15.42,3.69,5.54,6.95,11.36,9.63,17.45,2.2,5.01,4,10.19,6.04,15.26,1.98,4.93,3.26,10.07,4.32,15.22,1.36,6.59,2.39,13.27,3.19,19.96,1.04,8.76.7,17.58.24,26.36-.26,5.07-1.11,10.12-1.96,15.13-.74,4.35-1.74,8.67-2.84,12.96-.82,3.19-1.9,6.32-2.99,9.44-1.28,3.68-2.5,7.4-4.1,10.94-2.3,5.1-4.71,10.18-7.47,15.05-2.69,4.74-5.87,9.22-8.88,13.77-1.34,2.03-2.76,4.02-4.25,5.95-1.2,1.56-2.51,3.04-3.83,4.51-2.03,2.25-4.03,4.54-6.17,6.68-3.17,3.16-6.4,6.28-9.71,9.29-2.52,2.3-5.08,4.61-7.85,6.57-4.5,3.19-9.19,6.1-13.8,9.12-1.1.72-2.18,1.5-3.33,2.13-2.31,1.27-4.63,2.52-7.01,3.65-3.75,1.79-7.51,3.58-11.36,5.16-3.54,1.45-7.18,2.66-10.8,3.91-6.95,2.39-14.11,4.08-21.34,5.24-11.58,1.84-23.25,2.45-35,1.75-7.02-.42-13.96-1.31-20.84-2.62-5.44-1.04-10.88-2.14-16.1-4.11-5-1.88-10.1-3.5-15.06-5.46-3.17-1.25-6.23-2.83-9.24-4.44-3.83-2.06-7.54-4.34-11.33-6.46-2.59-1.45-5.12-3-7.45-4.85-3.57-2.83-7.2-5.57-10.7-8.48-2.69-2.23-5.21-4.65-7.81-6.99-1.15-1.04-1.19-2.86.1-4.01.82-.73,1.29-1.61,1.88-2.49,1.13-1.7,2.42-3.3,3.75-4.85,2.67-3.12,5.8-5.78,9.14-8.11,3.23-2.26,6.52-4.48,10.38-5.66,3.15-.97,6.2-2.33,9.4-3.09,3-.71,6.13-1.18,9.21-1.2,20.31-.1,40.62-.05,60.93-.05v-.02Z"/>
</svg>